<svg width="200" height="200" viewBox="0 0 200 200" fill="none" xmlns="http://www.w3.org/2000/svg">
<path d="M100.092 110.7C96.7444 110.7 93.4123 111.1 90.1822 111.891L84.4996 112.63C82.7011 112.469 81.2848 110.94 81.2848 109.084C81.2848 107.12 82.8666 105.523 84.8119 105.523C85.3626 105.523 85.8964 105.446 86.407 105.315C90.6451 106.775 95.1875 107.568 99.9083 107.568C123.019 107.568 141.82 88.5974 141.82 65.2796C141.82 41.9618 123.019 22.9913 99.9083 22.9913C76.8004 22.9913 58 41.9618 58 65.2796C58 78.2088 63.7818 89.7976 72.8713 97.5612C70.03 100.56 68.2778 104.618 68.2778 109.084C68.2778 118.282 75.6945 125.765 84.8119 125.765L92.2121 124.859L92.9759 124.712C95.2882 124.124 97.6819 123.823 100.092 123.823C116.027 123.823 128.993 136.907 128.993 152.989C128.993 169.07 116.027 182.153 100.092 182.153C84.1543 182.153 71.1887 169.07 71.1887 152.989C71.1887 149.663 71.7375 146.404 72.8185 143.301C74.0103 139.883 72.2299 136.137 68.8414 134.934C65.4546 133.734 61.7406 135.529 60.5488 138.947C58.9783 143.451 58.1817 148.176 58.1817 152.989C58.1817 176.307 76.9838 195.277 100.092 195.277C123.2 195.277 142 176.307 142 152.989C142 129.671 123.2 110.7 100.092 110.7ZM99.9083 36.1155C115.846 36.1155 128.813 49.1983 128.813 65.2796C128.813 81.3611 115.846 94.4455 99.9083 94.4455C83.9722 94.4455 71.0067 81.3611 71.0067 65.2796C71.0067 49.1983 83.9722 36.1155 99.9083 36.1155" fill="black"/>
<path d="M100.092 110.7C96.7444 110.7 93.4123 111.1 90.1822 111.891L84.4996 112.63C82.7011 112.469 81.2848 110.94 81.2848 109.084C81.2848 107.12 82.8666 105.523 84.8119 105.523C85.3626 105.523 85.8964 105.446 86.407 105.315C90.6451 106.775 95.1875 107.568 99.9083 107.568C123.019 107.568 141.82 88.5974 141.82 65.2796C141.82 41.9618 123.019 22.9913 99.9083 22.9913C76.8004 22.9913 58 41.9618 58 65.2796C58 78.2088 63.7818 89.7976 72.8713 97.5612C70.03 100.56 68.2778 104.618 68.2778 109.084C68.2778 118.282 75.6945 125.765 84.8119 125.765L92.2121 124.859L92.9759 124.712C95.2882 124.124 97.6819 123.823 100.092 123.823C116.027 123.823 128.993 136.907 128.993 152.989C128.993 169.07 116.027 182.153 100.092 182.153C84.1543 182.153 71.1887 169.07 71.1887 152.989C71.1887 149.663 71.7375 146.404 72.8185 143.301C74.0103 139.883 72.2299 136.137 68.8414 134.934C65.4546 133.734 61.7406 135.529 60.5488 138.947C58.9783 143.451 58.1817 148.176 58.1817 152.989C58.1817 176.307 76.9838 195.277 100.092 195.277C123.2 195.277 142 176.307 142 152.989C142 129.671 123.2 110.7 100.092 110.7ZM99.9083 36.1155C115.846 36.1155 128.813 49.1983 128.813 65.2796C128.813 81.3611 115.846 94.4455 99.9083 94.4455C83.9722 94.4455 71.0067 81.3611 71.0067 65.2796C71.0067 49.1983 83.9722 36.1155 99.9083 36.1155V36.1155Z" stroke="black" stroke-width="2.763" stroke-miterlimit="10"/>
<path d="M138.398 13.9953C138.398 18.9639 134.406 22.9922 129.482 22.9922C124.56 22.9922 120.568 18.9639 120.568 13.9953C120.568 9.02663 124.56 5.00001 129.482 5.00001C134.406 5.00001 138.398 9.02663 138.398 13.9953Z" fill="#CC2026"/>
</svg>
