<?xml version="1.0" standalone="no"?>
<!DOCTYPE svg PUBLIC "-//W3C//DTD SVG 20010904//EN"
 "http://www.w3.org/TR/2001/REC-SVG-20010904/DTD/svg10.dtd">
<svg version="1.0" xmlns="http://www.w3.org/2000/svg"
 width="55.000000pt" height="108.000000pt" viewBox="0 0 55.000000 108.000000"
 preserveAspectRatio="xMidYMid meet">
<metadata>
Created by potrace 1.15, written by Peter Selinger 2001-2017
</metadata>
<g transform="translate(0.000000,108.000000) scale(0.100000,-0.100000)"
fill="#000000" stroke="none">
<path d="M129 980 c-41 -22 -106 -90 -119 -126 -18 -47 -12 -181 10 -224 11
-21 24 -41 30 -45 6 -3 7 -30 3 -65 -5 -56 -4 -60 25 -89 29 -30 34 -31 112
-31 103 0 150 -22 181 -87 62 -129 -84 -259 -202 -180 -47 31 -69 79 -69 153
0 64 -11 84 -45 84 -42 0 -55 -29 -55 -122 0 -77 3 -88 30 -130 75 -114 229
-150 348 -81 172 99 149 389 -36 454 l-31 11 52 27 c123 64 170 221 103 349
-21 39 -75 89 -118 106 -54 23 -173 20 -219 -4z m177 -101 c78 -37 106 -141
56 -209 -45 -60 -139 -81 -191 -42 -95 70 -92 194 5 249 49 28 76 29 130 2z"/>
</g>
</svg>
