<?xml version="1.0" standalone="no"?>
<!DOCTYPE svg PUBLIC "-//W3C//DTD SVG 20010904//EN"
 "http://www.w3.org/TR/2001/REC-SVG-20010904/DTD/svg10.dtd">
<svg version="1.0" xmlns="http://www.w3.org/2000/svg"
 width="651.000000pt" height="178.000000pt" viewBox="0 0 651.000000 178.000000"
 preserveAspectRatio="xMidYMid meet">
<metadata>
Created by potrace 1.15, written by Peter Selinger 2001-2017
</metadata>
<g transform="translate(0.000000,178.000000) scale(0.100000,-0.100000)"
fill="#000000" stroke="none">
<path d="M5672 1763 c-4 -10 -7 -225 -7 -479 0 -495 0 -494 51 -494 36 0 52
25 59 92 9 85 1 859 -9 881 -6 12 -20 17 -47 17 -28 0 -42 -5 -47 -17z"/>
<path d="M594 1728 c-33 -29 -36 -35 -31 -72 11 -83 100 -115 158 -57 47 48
38 116 -21 146 -43 22 -65 19 -106 -17z"/>
<path d="M261 1574 c-66 -24 -111 -55 -168 -118 -76 -83 -96 -143 -91 -276 4
-113 18 -154 81 -233 l29 -38 -16 -54 c-22 -68 -10 -121 39 -169 41 -41 73
-47 220 -44 93 3 103 1 147 -24 92 -55 135 -137 126 -242 -9 -105 -101 -203
-208 -221 -58 -10 -138 17 -192 65 -69 60 -82 95 -80 221 2 93 0 108 -17 123
-28 26 -79 17 -105 -17 -19 -25 -21 -42 -21 -145 0 -103 3 -123 24 -165 37
-75 113 -152 189 -189 62 -31 73 -33 172 -33 93 0 112 3 162 27 168 78 255
254 218 440 -24 125 -93 218 -201 274 -50 26 -65 29 -184 32 -143 3 -170 8
-144 22 10 6 30 6 50 0 120 -35 288 19 385 122 178 191 114 517 -124 626 -72
33 -222 41 -291 16z m186 -139 c112 -33 173 -109 180 -225 5 -75 -10 -119 -59
-176 -127 -144 -360 -91 -414 94 -38 128 33 261 163 308 49 17 69 17 130 -1z"/>
<path d="M1157 1546 c-162 -45 -266 -210 -254 -402 8 -143 88 -269 204 -324
68 -33 235 -34 305 -3 57 26 141 102 158 143 15 35 7 75 -16 84 -28 11 -81
-13 -108 -49 -14 -18 -51 -46 -81 -61 -48 -23 -64 -26 -115 -21 -99 9 -175 65
-214 160 l-15 37 232 1 c235 0 319 7 339 27 17 17 10 128 -12 190 -35 99 -124
189 -209 212 -66 17 -164 20 -214 6z m203 -134 c52 -28 137 -148 118 -168 -2
-1 -106 -6 -232 -10 l-228 -7 7 24 c21 67 75 137 130 167 34 19 165 15 205 -6z"/>
<path d="M1734 1546 c-18 -14 -19 -31 -22 -348 -4 -383 -1 -408 52 -408 58 0
60 9 67 264 3 127 9 240 14 251 27 66 91 116 167 130 73 14 179 -59 193 -132
4 -21 10 -141 15 -267 8 -245 8 -246 62 -246 54 0 58 15 58 208 0 309 -17 395
-91 470 -56 57 -103 75 -206 80 -82 4 -97 2 -148 -22 l-57 -26 -25 30 c-27 33
-49 37 -79 16z"/>
<path d="M2457 1553 c-12 -11 -8 -722 3 -744 12 -21 41 -25 71 -9 18 10 19 25
19 379 0 327 -2 370 -16 375 -21 8 -69 8 -77 -1z"/>
<path d="M2950 1551 c-19 -4 -59 -20 -88 -36 -209 -114 -252 -435 -82 -619 61
-66 128 -95 231 -103 104 -7 148 5 228 58 102 68 140 149 87 184 -31 20 -49
12 -117 -50 -86 -78 -171 -95 -264 -51 -59 28 -108 76 -129 128 -9 21 -16 40
-16 43 0 3 102 5 228 6 246 1 328 8 343 30 15 21 2 141 -23 206 -24 65 -99
148 -161 176 -65 31 -163 42 -237 28z m192 -144 c20 -12 45 -33 56 -47 30 -39
63 -108 54 -114 -5 -3 -111 -8 -236 -12 l-227 -7 11 29 c48 127 110 174 230
174 60 0 82 -5 112 -23z"/>
<path d="M3766 1549 c-127 -21 -262 -173 -281 -314 -8 -67 10 -179 41 -242 33
-68 118 -145 192 -174 80 -31 214 -31 294 0 155 60 252 229 234 411 -22 223
-230 361 -480 319z m231 -145 c126 -78 166 -220 99 -353 -32 -61 -88 -105
-164 -127 -117 -34 -243 24 -305 140 -30 57 -30 165 0 222 34 64 69 100 126
129 46 23 61 26 124 22 58 -3 82 -10 120 -33z"/>
<path d="M4357 1547 c-25 -17 -32 -170 -18 -375 12 -180 26 -230 84 -291 56
-58 118 -81 225 -81 79 0 100 4 142 25 57 29 60 30 60 12 0 -20 33 -47 57 -47
11 0 28 9 39 21 18 20 19 41 19 363 0 381 -1 386 -61 386 -27 0 -36 -5 -43
-22 -5 -13 -12 -124 -16 -248 -8 -263 -16 -292 -93 -341 -85 -54 -160 -48
-232 17 -49 44 -60 91 -60 257 -1 179 -14 317 -31 328 -20 13 -52 11 -72 -4z"/>
<path d="M5222 1546 c-55 -18 -108 -58 -129 -99 -11 -21 -17 -57 -17 -104 -1
-113 32 -146 211 -207 128 -45 153 -64 153 -119 0 -52 -42 -93 -105 -102 -59
-9 -103 7 -150 55 -43 44 -73 50 -98 22 -25 -27 -21 -64 12 -109 44 -60 107
-87 206 -88 91 0 157 26 203 80 71 84 72 210 3 289 -23 26 -79 53 -184 87
-101 33 -137 59 -137 99 0 30 40 73 82 89 43 16 82 3 139 -45 38 -34 57 -43
73 -38 72 21 54 112 -34 170 -33 22 -55 28 -113 30 -44 3 -89 -2 -115 -10z"/>
<path d="M5889 1543 c-18 -21 -25 -311 -10 -441 12 -111 42 -173 113 -237 57
-51 117 -70 216 -69 59 1 84 7 133 32 l61 30 -7 -77 c-4 -42 -14 -92 -22 -111
-32 -78 -110 -130 -195 -130 -68 1 -121 26 -178 84 -43 44 -68 54 -104 40 -28
-11 -20 -74 14 -121 64 -87 172 -129 305 -121 119 8 211 72 270 187 l25 50 0
431 c0 278 -4 438 -10 451 -12 22 -74 27 -87 7 -4 -7 -12 -123 -19 -258 -12
-269 -16 -288 -77 -334 -76 -58 -203 -49 -264 17 -17 20 -37 55 -44 79 -6 24
-15 140 -18 259 -4 161 -9 220 -20 232 -17 22 -65 22 -82 0z"/>
</g>
</svg>
