<?xml version="1.0" standalone="no"?>
<!DOCTYPE svg PUBLIC "-//W3C//DTD SVG 20010904//EN"
 "http://www.w3.org/TR/2001/REC-SVG-20010904/DTD/svg10.dtd">
<svg version="1.0" xmlns="http://www.w3.org/2000/svg"
 width="117.000000pt" height="58.000000pt" viewBox="0 0 117.000000 58.000000"
 preserveAspectRatio="xMidYMid meet">
<metadata>
Created by potrace 1.15, written by Peter Selinger 2001-2017
</metadata>
<g transform="translate(0.000000,58.000000) scale(0.100000,-0.100000)"
fill="#000000" stroke="none">
<path d="M39 491 c-36 -35 -39 -43 -39 -93 0 -32 6 -62 15 -74 8 -10 15 -35
15 -54 0 -47 15 -60 67 -60 54 0 88 -16 102 -47 17 -37 14 -52 -18 -84 -35
-35 -61 -37 -96 -6 -21 18 -27 33 -29 67 -1 41 -3 45 -26 45 -22 0 -25 -5 -28
-39 -5 -55 4 -80 39 -115 27 -27 38 -31 85 -31 89 0 134 45 134 135 0 52 -20
89 -63 115 -27 17 -28 18 -8 25 11 3 32 20 46 36 19 24 25 42 25 81 0 88 -49
138 -135 138 -42 0 -52 -5 -86 -39z m149 -47 c26 -29 27 -45 7 -83 -23 -45
-76 -55 -113 -23 -43 36 -33 103 18 129 31 16 59 8 88 -23z"/>
<path d="M339 502 c-30 -26 -33 -36 -37 -94 -4 -61 -2 -67 28 -101 29 -34 37
-37 86 -37 58 0 100 14 109 38 10 27 -12 37 -48 24 -51 -18 -84 -15 -101 10
-9 12 -16 26 -16 30 0 5 38 8 85 8 97 0 105 6 86 69 -16 54 -42 74 -105 79
-48 4 -56 1 -87 -26z"/>
<path d="M583 523 c-10 -3 -13 -39 -13 -128 0 -104 2 -124 16 -129 32 -12 44
13 44 95 0 66 3 82 20 99 49 49 80 8 80 -106 0 -85 9 -102 45 -88 12 5 15 25
15 94 0 94 -10 135 -38 156 -22 17 -94 18 -110 2 -9 -9 -15 -9 -24 0 -13 13
-16 13 -35 5z"/>
<path d="M827 523 c-4 -3 -7 -61 -7 -129 0 -106 2 -123 17 -128 31 -12 43 21
43 123 0 53 -3 106 -6 119 -6 21 -33 30 -47 15z"/>
<path d="M952 502 c-37 -34 -46 -67 -39 -130 6 -55 44 -95 101 -106 48 -9 129
25 124 51 -4 19 -17 20 -90 7 -29 -5 -40 -2 -57 15 -12 12 -21 25 -21 31 0 5
39 11 88 12 l87 3 -1 44 c-1 37 -7 49 -33 73 -45 40 -116 40 -159 0z"/>
</g>
</svg>
