<svg width="200" height="100" viewBox="0 0 200 100" fill="none" xmlns="http://www.w3.org/2000/svg">
<path d="M37.5043 25.9219V58H41.7724V43.3088H56.5086V39.7146H41.7724V29.5161H58.5752V25.9219H37.5043ZM88.911 46.4088V25.9219H84.6429V46.4088C84.6429 49.2841 83.924 51.4706 82.4864 52.9681C81.0786 54.4358 79.012 55.1696 76.2864 55.1696C73.4111 55.1696 71.2096 54.4358 69.6821 52.9681C68.1546 51.4706 67.3908 49.2841 67.3908 46.4088V25.9219H63.1227V46.4088C63.1227 50.6918 64.2758 53.8218 66.5821 55.7986C68.9183 57.7454 72.1531 58.7188 76.2864 58.7188C80.3299 58.7188 83.4448 57.7005 85.6313 55.6638C87.8177 53.5971 88.911 50.5121 88.911 46.4088ZM114.28 35.3117H118.324C118.264 33.5446 117.92 32.032 117.291 30.7741C116.692 29.4861 115.853 28.4229 114.775 27.5842C113.726 26.7456 112.498 26.1316 111.091 25.7422C109.683 25.3528 108.155 25.1582 106.508 25.1582C105.04 25.1582 103.603 25.3528 102.195 25.7422C100.817 26.1016 99.5743 26.6707 98.4661 27.4494C97.3878 28.1982 96.5192 29.1717 95.8603 30.3697C95.2014 31.5378 94.8719 32.9306 94.8719 34.548C94.8719 36.0156 95.1564 37.2436 95.7255 38.232C96.3246 39.1904 97.1033 39.9842 98.0617 40.6131C99.0501 41.2122 100.158 41.7064 101.386 42.0957C102.614 42.4552 103.857 42.7846 105.115 43.0841C106.403 43.3537 107.661 43.6233 108.889 43.8928C110.117 44.1624 111.21 44.5218 112.169 44.9711C113.157 45.3904 113.936 45.9445 114.505 46.6334C115.104 47.3223 115.404 48.2208 115.404 49.329C115.404 50.4971 115.164 51.4556 114.685 52.2044C114.206 52.9532 113.577 53.5522 112.798 54.0015C112.019 54.4208 111.136 54.7203 110.147 54.9C109.189 55.0797 108.23 55.1696 107.272 55.1696C106.074 55.1696 104.906 55.0198 103.768 54.7203C102.629 54.4208 101.626 53.9565 100.757 53.3276C99.9187 52.6986 99.2299 51.9049 98.6907 50.9464C98.1815 49.958 97.927 48.7899 97.927 47.4421H93.8835C93.8835 49.3889 94.2279 51.0812 94.9168 52.5189C95.6357 53.9266 96.5941 55.0947 97.7922 56.0232C99.0202 56.9217 100.428 57.5957 102.015 58.0449C103.633 58.4942 105.34 58.7188 107.137 58.7188C108.605 58.7188 110.072 58.5391 111.54 58.1797C113.038 57.8502 114.385 57.3111 115.583 56.5623C116.781 55.7836 117.755 54.7952 118.504 53.5971C119.282 52.3691 119.672 50.9015 119.672 49.1943C119.672 47.6068 119.372 46.289 118.773 45.2407C118.204 44.1923 117.425 43.3238 116.437 42.6349C115.479 41.946 114.385 41.4069 113.157 41.0175C111.929 40.5982 110.671 40.2387 109.383 39.9392C108.125 39.6397 106.882 39.3702 105.654 39.1305C104.426 38.861 103.318 38.5315 102.33 38.1421C101.371 37.7528 100.593 37.2586 99.9936 36.6595C99.4245 36.0306 99.14 35.2219 99.14 34.2335C99.14 33.1852 99.3347 32.3166 99.7241 31.6277C100.143 30.9088 100.683 30.3398 101.341 29.9204C102.03 29.5011 102.809 29.2016 103.678 29.0219C104.546 28.8422 105.43 28.7523 106.328 28.7523C108.545 28.7523 110.357 29.2765 111.765 30.3248C113.202 31.3431 114.041 33.0055 114.28 35.3117ZM125.038 25.9219V58H129.306V25.9219H125.038ZM138.956 41.961C138.956 40.3436 139.165 38.7561 139.585 37.1987C140.004 35.6112 140.663 34.1885 141.562 32.9306C142.46 31.6726 143.613 30.6692 145.021 29.9204C146.429 29.1417 148.106 28.7523 150.053 28.7523C152 28.7523 153.677 29.1417 155.085 29.9204C156.492 30.6692 157.646 31.6726 158.544 32.9306C159.443 34.1885 160.102 35.6112 160.521 37.1987C160.94 38.7561 161.15 40.3436 161.15 41.961C161.15 43.5783 160.94 45.1807 160.521 46.7682C160.102 48.3257 159.443 49.7334 158.544 50.9913C157.646 52.2493 156.492 53.2677 155.085 54.0464C153.677 54.7952 152 55.1696 150.053 55.1696C148.106 55.1696 146.429 54.7952 145.021 54.0464C143.613 53.2677 142.46 52.2493 141.562 50.9913C140.663 49.7334 140.004 48.3257 139.585 46.7682C139.165 45.1807 138.956 43.5783 138.956 41.961ZM134.688 41.961C134.688 44.1474 135.002 46.259 135.631 48.2957C136.29 50.3025 137.263 52.0846 138.551 53.6421C139.839 55.1995 141.442 56.4425 143.359 57.371C145.276 58.2696 147.507 58.7188 150.053 58.7188C152.599 58.7188 154.83 58.2696 156.747 57.371C158.664 56.4425 160.266 55.1995 161.554 53.6421C162.842 52.0846 163.801 50.3025 164.43 48.2957C165.088 46.259 165.418 44.1474 165.418 41.961C165.418 39.7745 165.088 37.6779 164.43 35.6711C163.801 33.6344 162.842 31.8373 161.554 30.2799C160.266 28.7224 158.664 27.4794 156.747 26.5509C154.83 25.6224 152.599 25.1582 150.053 25.1582C147.507 25.1582 145.276 25.6224 143.359 26.5509C141.442 27.4794 139.839 28.7224 138.551 30.2799C137.263 31.8373 136.29 33.6344 135.631 35.6711C135.002 37.6779 134.688 39.7745 134.688 41.961ZM170.574 25.9219V58H174.617V32.2567H174.707L191.465 58H196.138V25.9219H192.094V51.9348H192.004L175.112 25.9219H170.574Z" fill="white"/>
<path d="M16.0888 54.4019C14.8095 54.4019 13.5357 54.5548 12.3012 54.857L10.1292 55.1392C9.44177 55.0778 8.90029 54.4933 8.90029 53.7841C8.90029 53.0334 9.5046 52.423 10.2484 52.423C10.4587 52.423 10.6629 52.3935 10.8583 52.3436C12.4781 52.9012 14.2144 53.2048 16.0186 53.2048C24.8523 53.2048 32.0385 45.9534 32.0385 37.0407C32.0385 28.1279 24.8523 20.877 16.0186 20.877C7.1862 20.877 0 28.1279 0 37.0407C0 41.9824 2.21029 46.4122 5.68419 49.3797C4.59845 50.526 3.92853 52.077 3.92853 53.7841C3.92853 57.3001 6.76346 60.16 10.2484 60.16L13.0769 59.8139L13.3689 59.7576C14.2527 59.5326 15.1675 59.4175 16.0888 59.4175C22.18 59.4175 27.1356 64.4188 27.1356 70.566C27.1356 76.7126 22.18 81.713 16.0888 81.713C9.99711 81.713 5.04106 76.7126 5.04106 70.566C5.04106 69.2945 5.25082 68.0489 5.66432 66.8629C6.11987 65.5563 5.43932 64.1245 4.14383 63.6648C2.84926 63.206 1.42994 63.8921 0.974393 65.1987C0.374234 66.9202 0.0697649 68.7258 0.0697649 70.566C0.0697649 79.4787 7.25643 86.7296 16.0888 86.7296C24.9212 86.7296 32.1074 79.4787 32.1074 70.566C32.1074 61.6532 24.9212 54.4019 16.0888 54.4019ZM16.0186 25.8931C22.1103 25.8931 27.0668 30.894 27.0668 37.0407C27.0668 43.1873 22.1103 48.1887 16.0186 48.1887C9.92735 48.1887 4.97176 43.1873 4.97176 37.0407C4.97176 30.894 9.92735 25.8931 16.0186 25.8931" fill="white"/>
<path d="M30.7307 17.4383C30.7307 19.3376 29.2052 20.8771 27.3229 20.8771C25.4411 20.8771 23.9155 19.3376 23.9155 17.4383C23.9155 15.5389 25.4411 14 27.3229 14C29.2052 14 30.7307 15.5389 30.7307 17.4383Z" fill="#CC2026"/>
</svg>
