<?xml version="1.0" standalone="no"?>
<!DOCTYPE svg PUBLIC "-//W3C//DTD SVG 20010904//EN"
 "http://www.w3.org/TR/2001/REC-SVG-20010904/DTD/svg10.dtd">
<svg version="1.0" xmlns="http://www.w3.org/2000/svg"
 width="234.000000pt" height="115.000000pt" viewBox="0 0 234.000000 115.000000"
 preserveAspectRatio="xMidYMid meet">
<metadata>
Created by potrace 1.15, written by Peter Selinger 2001-2017
</metadata>
<g transform="translate(0.000000,115.000000) scale(0.100000,-0.100000)"
fill="#000000" stroke="none">
<path d="M155 1031 c-50 -22 -129 -109 -146 -158 -7 -21 -10 -66 -7 -109 4
-60 10 -81 34 -116 25 -37 29 -53 29 -110 0 -60 3 -70 28 -95 26 -27 32 -28
120 -28 108 0 149 -18 184 -81 44 -76 22 -159 -56 -211 -65 -44 -162 -22 -209
47 -17 26 -22 47 -22 102 0 85 -11 108 -51 108 -25 0 -33 -6 -45 -35 -16 -40
-18 -114 -4 -167 15 -54 81 -132 132 -157 34 -16 63 -21 124 -21 71 0 85 3
125 28 51 33 96 83 116 129 17 42 17 164 -1 207 -32 76 -112 138 -199 156
l-42 8 46 1 c34 1 57 9 92 34 86 61 117 121 117 224 0 158 -109 263 -269 263
-32 0 -73 -8 -96 -19z m144 -91 c39 -11 86 -51 107 -92 41 -79 -13 -186 -112
-218 -71 -24 -175 45 -190 126 -16 88 60 185 151 193 6 1 26 -3 44 -9z"/>
<path d="M772 1041 c-98 -25 -160 -108 -169 -224 -8 -103 14 -173 68 -222 56
-51 96 -65 181 -65 112 0 208 57 194 114 -8 34 -38 34 -112 1 -66 -29 -93 -31
-141 -8 -37 17 -73 65 -73 96 0 15 15 17 169 17 189 0 181 -3 181 74 0 125
-84 214 -207 222 -32 1 -73 -1 -91 -5z m129 -108 c24 -14 59 -66 59 -87 0 -3
-54 -6 -120 -6 -66 0 -120 2 -120 5 0 4 7 19 15 35 34 66 105 89 166 53z"/>
<path d="M1333 1041 c-18 -5 -43 -15 -55 -23 -19 -13 -23 -13 -40 4 -22 22
-47 23 -74 4 -18 -14 -19 -28 -19 -246 0 -194 2 -232 15 -240 22 -14 66 -12
78 3 6 7 14 82 18 167 4 85 11 165 15 177 11 29 66 63 101 63 15 0 40 -11 55
-24 l28 -24 5 -174 c3 -95 9 -179 13 -185 11 -18 72 -16 87 1 8 11 11 67 8
203 -3 208 -12 239 -73 274 -36 21 -118 30 -162 20z"/>
<path d="M1657 1032 c-15 -16 -17 -46 -17 -244 0 -205 2 -226 18 -241 29 -26
71 -22 82 9 11 28 12 425 1 464 -9 33 -59 40 -84 12z"/>
<path d="M1976 1036 c-47 -18 -101 -68 -127 -118 -42 -81 -34 -212 16 -290 71
-107 265 -132 369 -46 28 23 36 37 34 57 -4 34 -42 39 -95 13 -55 -28 -98 -35
-136 -23 -41 14 -83 56 -92 94 l-7 27 143 1 c79 1 158 4 174 8 30 6 30 7 30
77 0 60 -4 77 -28 112 -42 64 -92 92 -173 98 -46 3 -82 0 -108 -10z m170 -117
c12 -13 26 -36 29 -51 l7 -28 -105 0 c-134 0 -141 2 -121 41 35 70 138 90 190
38z"/>
<path d="M1003 453 c-22 -4 -23 -9 -23 -84 0 -64 3 -79 15 -79 8 0 15 9 15 20
0 17 4 19 26 14 18 -5 32 0 50 17 29 28 31 58 3 93 -20 25 -36 29 -86 19z"/>
<path d="M1190 440 c-42 -42 -13 -100 51 -100 26 0 30 -3 19 -10 -8 -5 -30 -7
-47 -4 -25 5 -33 3 -33 -9 0 -26 63 -37 101 -17 16 9 19 22 19 79 l0 69 -31 6
c-48 9 -57 8 -79 -14z"/>
<path d="M1640 440 c-11 -11 -20 -31 -20 -44 0 -31 36 -76 61 -76 31 0 61 20
55 35 -9 25 11 25 22 0 14 -29 48 -40 85 -26 47 18 49 101 2 123 -33 15 -72 2
-89 -30 -9 -16 -15 -21 -16 -11 0 22 -32 49 -58 49 -12 0 -31 -9 -42 -20z"/>
</g>
</svg>
