<?xml version="1.0" standalone="no"?>
<!DOCTYPE svg PUBLIC "-//W3C//DTD SVG 20010904//EN"
 "http://www.w3.org/TR/2001/REC-SVG-20010904/DTD/svg10.dtd">
<svg version="1.0" xmlns="http://www.w3.org/2000/svg"
 width="350.000000pt" height="172.000000pt" viewBox="0 0 350.000000 172.000000"
 preserveAspectRatio="xMidYMid meet">
<metadata>
Created by potrace 1.15, written by Peter Selinger 2001-2017
</metadata>
<g transform="translate(0.000000,172.000000) scale(0.100000,-0.100000)"
fill="#000000" stroke="none">
<path d="M595 1695 c-51 -50 -17 -135 54 -135 49 0 81 32 81 81 0 72 -84 106
-135 54z"/>
<path d="M310 1560 c-115 -24 -222 -110 -274 -220 -28 -60 -31 -73 -30 -165 0
-86 4 -108 26 -155 14 -30 41 -73 60 -94 l34 -39 -18 -36 c-10 -19 -18 -49
-18 -67 0 -43 40 -115 76 -136 37 -21 60 -23 164 -14 140 13 219 -23 275 -125
25 -45 30 -65 30 -124 0 -58 -5 -78 -27 -115 -55 -93 -123 -133 -224 -133
-106 1 -202 70 -235 171 -8 23 -10 66 -5 125 7 100 -4 127 -51 127 -64 0 -88
-47 -88 -175 0 -80 4 -97 32 -157 39 -83 108 -154 188 -194 54 -26 70 -29 160
-29 88 0 107 3 157 27 80 37 152 107 191 187 30 61 32 72 32 171 0 96 -3 110
-29 165 -76 155 -250 246 -411 216 -87 -16 -97 -15 -93 12 2 17 8 21 28 19 14
-2 70 -5 125 -5 95 -2 104 0 166 30 80 39 150 111 187 191 23 50 27 70 27 157
0 83 -4 108 -23 150 -35 76 -70 122 -124 161 -89 66 -209 94 -308 74z m152
-142 c22 -6 59 -29 84 -51 82 -72 109 -160 80 -262 -23 -77 -91 -147 -167
-169 -66 -20 -84 -20 -148 1 -187 60 -237 295 -91 426 71 64 152 82 242 55z"/>
<path d="M1133 1541 c-94 -32 -170 -110 -209 -215 -28 -76 -26 -231 4 -307 30
-76 87 -138 164 -180 61 -33 67 -34 173 -34 102 0 114 2 175 31 108 52 147
106 104 148 -23 24 -43 20 -128 -24 -66 -34 -86 -40 -140 -40 -113 0 -202 72
-213 174 l-6 46 256 0 257 0 16 25 c20 31 12 111 -18 195 -28 75 -104 150
-181 179 -73 27 -181 28 -254 2z m179 -111 c68 -19 118 -75 131 -147 l7 -33
-195 0 -195 0 6 28 c28 119 133 183 246 152z"/>
<path d="M1985 1548 c-16 -6 -49 -24 -73 -39 -24 -16 -45 -29 -46 -29 -2 0 -7
11 -10 25 -12 46 -76 55 -118 17 -17 -14 -18 -43 -18 -349 0 -320 1 -334 20
-353 25 -25 71 -26 101 -1 24 19 24 22 29 258 5 217 7 241 26 273 28 49 95 84
161 85 44 0 56 -4 84 -30 56 -53 59 -71 59 -330 0 -222 1 -236 20 -255 25 -25
71 -26 101 -1 l24 19 -1 259 c-1 215 -4 265 -18 302 -39 105 -112 154 -236
158 -41 1 -88 -3 -105 -9z"/>
<path d="M2483 1533 c-16 -25 -18 -57 -17 -350 1 -309 1 -325 21 -351 31 -42
91 -42 113 -1 8 14 11 129 10 357 -1 378 0 372 -71 372 -31 0 -42 -5 -56 -27z"/>
<path d="M2990 1551 c-94 -30 -173 -103 -217 -196 -26 -55 -28 -70 -28 -175 0
-104 3 -121 27 -172 59 -127 166 -198 310 -206 62 -4 92 0 145 17 78 26 141
65 162 103 13 23 13 29 -2 52 -22 34 -55 34 -108 0 -129 -81 -262 -70 -342 28
-22 27 -31 51 -35 88 l-5 50 251 0 c289 0 282 -2 282 85 0 131 -69 248 -177
302 -47 23 -72 28 -147 30 -50 1 -102 -1 -116 -6z m173 -125 c21 -8 48 -22 59
-33 27 -25 58 -87 58 -118 l0 -25 -190 0 c-209 0 -202 -2 -176 61 44 106 144
152 249 115z"/>
<path d="M1304 666 c-56 -25 -69 -110 -23 -152 30 -27 92 -24 123 5 50 47 23
142 -44 155 -14 3 -39 0 -56 -8z"/>
<path d="M1528 666 c-16 -8 -28 -11 -28 -5 0 5 -7 9 -15 9 -12 0 -15 -19 -15
-115 0 -96 3 -115 15 -115 11 0 15 11 15 40 l0 40 25 -16 c28 -18 75 -12 98
14 40 44 28 121 -24 147 -34 18 -37 18 -71 1z"/>
<path d="M1815 670 c-29 -11 -44 -32 -51 -68 -5 -26 -1 -36 25 -63 32 -31 56
-35 104 -14 13 5 17 2 17 -12 0 -10 -5 -24 -12 -31 -14 -14 -72 -16 -98 -2
-13 7 -19 6 -23 -5 -8 -19 55 -39 98 -31 53 10 65 37 65 138 0 72 -3 88 -15
88 -8 0 -15 -4 -15 -9 0 -6 -12 -3 -27 5 -31 16 -39 16 -68 4z"/>
<path d="M2025 668 c-33 -19 -44 -41 -45 -85 0 -74 63 -112 127 -78 41 22 30
40 -14 23 -37 -14 -83 1 -83 27 0 12 13 15 65 15 63 0 65 1 65 26 0 30 -50 84
-77 84 -10 0 -27 -6 -38 -12z"/>
<path d="M2494 670 c-60 -24 -72 -104 -24 -152 26 -26 36 -30 66 -25 44 7 69
26 54 41 -7 7 -14 6 -22 -2 -18 -18 -63 -14 -81 6 -10 10 -17 22 -17 25 0 4
32 7 71 7 68 0 70 1 64 23 -4 12 -9 30 -12 40 -4 16 -52 48 -70 46 -4 0 -18
-4 -29 -9z"/>
<path d="M2678 664 c-53 -28 -64 -94 -24 -141 19 -22 32 -28 66 -28 96 0 126
126 40 170 -36 18 -47 18 -82 -1z"/>
</g>
</svg>
