<svg width="58" height="20" viewBox="0 0 58 20" fill="none" xmlns="http://www.w3.org/2000/svg">
<g clip-path="url(#clip0)">
<path d="M12.8446 2.57976V11H13.9649V7.14367H17.833V6.20023H13.9649V3.52321H18.3755V2.57976H12.8446ZM26.3384 7.95739V2.57976H25.2181V7.95739C25.2181 8.71215 25.0294 9.28608 24.652 9.67918C24.2825 10.0644 23.74 10.257 23.0246 10.257C22.2698 10.257 21.6919 10.0644 21.291 9.67918C20.89 9.28608 20.6895 8.71215 20.6895 7.95739V2.57976H19.5692V7.95739C19.5692 9.08166 19.8719 9.90325 20.4773 10.4221C21.0905 10.9332 21.9396 11.1887 23.0246 11.1887C24.0859 11.1887 24.9036 10.9214 25.4775 10.3868C26.0514 9.84428 26.3384 9.03449 26.3384 7.95739ZM32.9977 5.04451H34.0591C34.0433 4.58065 33.9529 4.18362 33.7878 3.85341C33.6306 3.51534 33.4105 3.23624 33.1274 3.01611C32.8522 2.79597 32.5299 2.6348 32.1604 2.53259C31.7909 2.43038 31.3899 2.37928 30.9575 2.37928C30.5723 2.37928 30.1949 2.43038 29.8254 2.53259C29.4637 2.62693 29.1374 2.77631 28.8465 2.98073C28.5635 3.17728 28.3355 3.43279 28.1625 3.74727C27.9896 4.05389 27.9031 4.41948 27.9031 4.84403C27.9031 5.22927 27.9778 5.55161 28.1272 5.81106C28.2844 6.06264 28.4888 6.27099 28.7404 6.43609C28.9999 6.59333 29.2907 6.72305 29.6131 6.82526C29.9354 6.91961 30.2617 7.00609 30.5919 7.08471C30.93 7.15547 31.2602 7.22622 31.5825 7.29698C31.9049 7.36774 32.1918 7.46209 32.4434 7.58002C32.7029 7.69008 32.9073 7.83553 33.0567 8.01636C33.2139 8.19719 33.2925 8.43305 33.2925 8.72394C33.2925 9.03056 33.2296 9.28215 33.1038 9.4787C32.978 9.67525 32.8129 9.83249 32.6085 9.95042C32.4041 10.0605 32.1722 10.1391 31.9127 10.1863C31.6611 10.2335 31.4096 10.257 31.158 10.257C30.8435 10.257 30.5369 10.2177 30.2381 10.1391C29.9394 10.0605 29.676 9.93863 29.448 9.77352C29.2278 9.60842 29.047 9.40008 28.9055 9.14849C28.7719 8.88904 28.705 8.58242 28.705 8.22863H27.6436C27.6436 8.73967 27.7341 9.18387 27.9149 9.56125C28.1036 9.93076 28.3552 10.2374 28.6696 10.4811C28.992 10.717 29.3615 10.8939 29.7782 11.0118C30.2027 11.1297 30.6509 11.1887 31.1226 11.1887C31.5078 11.1887 31.8931 11.1415 32.2783 11.0472C32.6714 10.9607 33.0252 10.8192 33.3397 10.6226C33.6542 10.4182 33.9097 10.1588 34.1062 9.84428C34.3107 9.52194 34.4129 9.1367 34.4129 8.68856C34.4129 8.27187 34.3342 7.92595 34.177 7.65077C34.0276 7.3756 33.8232 7.1476 33.5638 6.96678C33.3122 6.78595 33.0252 6.64443 32.7029 6.54223C32.3805 6.43216 32.0503 6.33781 31.7123 6.25919C31.382 6.18057 31.0558 6.10982 30.7334 6.04692C30.4111 5.97616 30.1202 5.88968 29.8607 5.78747C29.6092 5.68527 29.4047 5.55554 29.2475 5.3983C29.0981 5.2332 29.0234 5.02092 29.0234 4.76148C29.0234 4.48631 29.0745 4.25831 29.1767 4.07748C29.2868 3.88879 29.4283 3.73941 29.6013 3.62934C29.7821 3.51928 29.9865 3.44066 30.2145 3.39348C30.4425 3.34631 30.6745 3.32272 30.9103 3.32272C31.4921 3.32272 31.9678 3.46031 32.3373 3.73548C32.7147 4.00279 32.9348 4.43913 32.9977 5.04451ZM35.8214 2.57976V11H36.9417V2.57976H35.8214ZM39.4748 6.78988C39.4748 6.36533 39.5298 5.94864 39.6399 5.53982C39.7499 5.12313 39.9229 4.74968 40.1587 4.41948C40.3946 4.08927 40.6973 3.8259 41.0668 3.62934C41.4363 3.42493 41.8766 3.32272 42.3876 3.32272C42.8987 3.32272 43.3389 3.42493 43.7085 3.62934C44.078 3.8259 44.3807 4.08927 44.6165 4.41948C44.8524 4.74968 45.0253 5.12313 45.1354 5.53982C45.2455 5.94864 45.3005 6.36533 45.3005 6.78988C45.3005 7.21443 45.2455 7.63505 45.1354 8.05174C45.0253 8.46056 44.8524 8.83008 44.6165 9.16028C44.3807 9.49049 44.078 9.7578 43.7085 9.96221C43.3389 10.1588 42.8987 10.257 42.3876 10.257C41.8766 10.257 41.4363 10.1588 41.0668 9.96221C40.6973 9.7578 40.3946 9.49049 40.1587 9.16028C39.9229 8.83008 39.7499 8.46056 39.6399 8.05174C39.5298 7.63505 39.4748 7.21443 39.4748 6.78988ZM38.3544 6.78988C38.3544 7.36381 38.437 7.91808 38.6021 8.4527C38.775 8.97946 39.0305 9.44725 39.3686 9.85607C39.7067 10.2649 40.1273 10.5912 40.6305 10.8349C41.1336 11.0708 41.7194 11.1887 42.3876 11.1887C43.0559 11.1887 43.6416 11.0708 44.1448 10.8349C44.648 10.5912 45.0686 10.2649 45.4067 9.85607C45.7447 9.44725 45.9963 8.97946 46.1614 8.4527C46.3344 7.91808 46.4209 7.36381 46.4209 6.78988C46.4209 6.21595 46.3344 5.66561 46.1614 5.13885C45.9963 4.60424 45.7447 4.13251 45.4067 3.72369C45.0686 3.31486 44.648 2.98859 44.1448 2.74487C43.6416 2.50114 43.0559 2.37928 42.3876 2.37928C41.7194 2.37928 41.1336 2.50114 40.6305 2.74487C40.1273 2.98859 39.7067 3.31486 39.3686 3.72369C39.0305 4.13251 38.775 4.60424 38.6021 5.13885C38.437 5.66561 38.3544 6.21595 38.3544 6.78988ZM47.7743 2.57976V11H48.8357V4.24258H48.8593L53.2581 11H54.4845V2.57976H53.4232V9.40794H53.3996L48.9654 2.57976H47.7743Z" fill="black"/>
<path d="M7.22319 10.6052C6.88738 10.6052 6.55303 10.6453 6.22898 10.7246L5.65886 10.7987C5.4784 10.7826 5.33627 10.6292 5.33627 10.443C5.33627 10.246 5.4949 10.0857 5.69015 10.0857C5.74533 10.0857 5.79893 10.078 5.85023 10.0649C6.27543 10.2113 6.73118 10.2909 7.20476 10.2909C9.52355 10.2909 11.4099 8.38753 11.4099 6.048C11.4099 3.70847 9.52355 1.80517 7.20476 1.80517C4.88634 1.80517 3.00002 3.70847 3.00002 6.048C3.00002 7.34516 3.5802 8.50795 4.49207 9.2869C4.20707 9.58779 4.03122 9.99491 4.03122 10.443C4.03122 11.3659 4.77537 12.1166 5.69015 12.1166L6.4326 12.0258L6.50925 12.011C6.74125 11.9519 6.98137 11.9217 7.22319 11.9217C8.82209 11.9217 10.1229 13.2345 10.1229 14.8481C10.1229 16.4616 8.82209 17.7741 7.22319 17.7741C5.62418 17.7741 4.32325 16.4616 4.32325 14.8481C4.32325 14.5144 4.37831 14.1874 4.48685 13.8761C4.60643 13.5331 4.42779 13.1573 4.08774 13.0366C3.74792 12.9162 3.37536 13.0963 3.25579 13.4393C3.09825 13.8911 3.01833 14.3651 3.01833 14.8481C3.01833 17.1876 4.90477 19.0909 7.22319 19.0909C9.54162 19.0909 11.4279 17.1876 11.4279 14.8481C11.4279 12.5086 9.54162 10.6052 7.22319 10.6052ZM7.20476 3.12186C8.80378 3.12186 10.1048 4.43455 10.1048 6.048C10.1048 7.66145 8.80378 8.97426 7.20476 8.97426C5.60586 8.97426 4.30506 7.66145 4.30506 6.048C4.30506 4.43455 5.60586 3.12186 7.20476 3.12186" fill="black"/>
<path d="M11.0666 0.902522C11.0666 1.40109 10.6662 1.80518 10.1721 1.80518C9.67813 1.80518 9.27768 1.40109 9.27768 0.902522C9.27768 0.403958 9.67813 -1.12053e-05 10.1721 -1.12053e-05C10.6662 -1.12053e-05 11.0666 0.403958 11.0666 0.902522Z" fill="#CC2026"/>
</g>
<defs>
<clipPath id="clip0">
<rect width="57.6" height="19.5" fill="white"/>
</clipPath>
</defs>
</svg>
