<svg width="29" height="30" viewBox="0 0 29 30" fill="none" xmlns="http://www.w3.org/2000/svg">
<path d="M15.0131 16.1001C14.5349 16.1001 14.0589 16.1572 13.5975 16.2701L12.7857 16.3757C12.5287 16.3528 12.3264 16.1343 12.3264 15.8692C12.3264 15.5886 12.5524 15.3605 12.8303 15.3605C12.9089 15.3605 12.9852 15.3494 13.0581 15.3308C13.6636 15.5393 14.3125 15.6526 14.9869 15.6526C18.2885 15.6526 20.9743 12.9425 20.9743 9.61138C20.9743 6.28027 18.2885 3.5702 14.9869 3.5702C11.6858 3.5702 9 6.28027 9 9.61138C9 11.4584 9.82596 13.114 11.1245 14.2231C10.7186 14.6514 10.4683 15.2311 10.4683 15.8692C10.4683 17.1832 11.5278 18.2522 12.8303 18.2522L13.8874 18.1228L13.9966 18.1018C14.3269 18.0177 14.6688 17.9747 15.0131 17.9747C17.2896 17.9747 19.1419 19.8439 19.1419 22.1413C19.1419 24.4386 17.2896 26.3076 15.0131 26.3076C12.7363 26.3076 10.8841 24.4386 10.8841 22.1413C10.8841 21.6662 10.9625 21.2005 11.1169 20.7573C11.2872 20.269 11.0328 19.7339 10.5488 19.562C10.0649 19.3906 9.53437 19.647 9.36411 20.1354C9.13976 20.7788 9.02596 21.4537 9.02596 22.1413C9.02596 25.4724 11.712 28.1825 15.0131 28.1825C18.3142 28.1825 21 25.4724 21 22.1413C21 18.8101 18.3142 16.1001 15.0131 16.1001ZM14.9869 5.44509C17.2637 5.44509 19.1161 7.31406 19.1161 9.61138C19.1161 11.9087 17.2637 13.778 14.9869 13.778C12.7103 13.778 10.8581 11.9087 10.8581 9.61138C10.8581 7.31406 12.7103 5.44509 14.9869 5.44509" fill="black"/>
<path d="M15.0131 16.1001C14.5349 16.1001 14.0589 16.1572 13.5975 16.2701L12.7857 16.3757C12.5287 16.3528 12.3264 16.1343 12.3264 15.8692C12.3264 15.5886 12.5524 15.3605 12.8303 15.3605C12.9089 15.3605 12.9852 15.3494 13.0581 15.3308C13.6636 15.5393 14.3125 15.6526 14.9869 15.6526C18.2885 15.6526 20.9743 12.9425 20.9743 9.61138C20.9743 6.28027 18.2885 3.5702 14.9869 3.5702C11.6858 3.5702 9 6.28027 9 9.61138C9 11.4584 9.82596 13.114 11.1245 14.2231C10.7186 14.6514 10.4683 15.2311 10.4683 15.8692C10.4683 17.1832 11.5278 18.2522 12.8303 18.2522L13.8874 18.1228L13.9966 18.1018C14.3269 18.0177 14.6688 17.9747 15.0131 17.9747C17.2896 17.9747 19.1419 19.8439 19.1419 22.1413C19.1419 24.4386 17.2896 26.3076 15.0131 26.3076C12.7363 26.3076 10.8841 24.4386 10.8841 22.1413C10.8841 21.6662 10.9625 21.2005 11.1169 20.7573C11.2872 20.269 11.0328 19.7339 10.5488 19.562C10.0649 19.3906 9.53437 19.647 9.36411 20.1354C9.13976 20.7788 9.02596 21.4537 9.02596 22.1413C9.02596 25.4724 11.712 28.1825 15.0131 28.1825C18.3142 28.1825 21 25.4724 21 22.1413C21 18.8101 18.3142 16.1001 15.0131 16.1001ZM14.9869 5.44509C17.2637 5.44509 19.1161 7.31406 19.1161 9.61138C19.1161 11.9087 17.2637 13.778 14.9869 13.778C12.7103 13.778 10.8581 11.9087 10.8581 9.61138C10.8581 7.31406 12.7103 5.44509 14.9869 5.44509V5.44509Z" stroke="black" stroke-width="0.095899" stroke-miterlimit="10"/>
<path d="M20.4855 2.28504C20.4855 2.99485 19.9152 3.57031 19.2118 3.57031C18.5086 3.57031 17.9384 2.99485 17.9384 2.28504C17.9384 1.57523 18.5086 1 19.2118 1C19.9152 1 20.4855 1.57523 20.4855 2.28504Z" fill="#CC2026"/>
</svg>
