<svg width="538" height="182" viewBox="0 0 538 182" fill="none" xmlns="http://www.w3.org/2000/svg">
<path d="M130.885 36.1074V107H140.317V74.5324H172.884V66.5893H140.317V44.0506H177.451V36.1074H130.885ZM244.493 81.3834V36.1074H235.061V81.3834C235.061 87.7379 233.472 92.57 230.295 95.8796C227.184 99.123 222.617 100.745 216.593 100.745C210.238 100.745 205.373 99.123 201.997 95.8796C198.622 92.57 196.934 87.7379 196.934 81.3834V36.1074H187.501V81.3834C187.501 90.8489 190.05 97.7661 195.146 102.135C200.31 106.437 207.458 108.589 216.593 108.589C225.529 108.589 232.413 106.338 237.245 101.837C242.077 97.2696 244.493 90.4518 244.493 81.3834ZM300.56 56.8589H309.496C309.364 52.9535 308.602 49.6108 307.212 46.8307C305.888 43.9844 304.035 41.6345 301.652 39.7811C299.335 37.9277 296.621 36.5708 293.51 35.7103C290.399 34.8498 287.023 34.4195 283.383 34.4195C280.139 34.4195 276.962 34.8498 273.851 35.7103C270.806 36.5046 268.059 37.7623 265.61 39.4833C263.227 41.1381 261.308 43.2894 259.851 45.9371C258.395 48.5186 257.667 51.5966 257.667 55.171C257.667 58.4144 258.296 61.1283 259.553 63.3127C260.877 65.4309 262.598 67.185 264.716 68.575C266.901 69.8989 269.35 70.9911 272.064 71.8516C274.778 72.6459 277.525 73.374 280.305 74.036C283.151 74.6317 285.931 75.2274 288.645 75.8232C291.359 76.4189 293.775 77.2132 295.893 78.2061C298.078 79.1328 299.799 80.3574 301.056 81.8798C302.38 83.4022 303.042 85.388 303.042 87.8372C303.042 90.4187 302.513 92.5369 301.454 94.1917C300.394 95.8465 299.004 97.1704 297.283 98.1633C295.562 99.09 293.61 99.7519 291.425 100.149C289.307 100.546 287.189 100.745 285.071 100.745C282.423 100.745 279.842 100.414 277.326 99.7519C274.811 99.09 272.593 98.064 270.674 96.6739C268.82 95.2839 267.298 93.5298 266.107 91.4116C264.981 89.2272 264.419 86.6457 264.419 83.667H255.483C255.483 87.9696 256.244 91.7094 257.766 94.8867C259.355 97.9978 261.473 100.579 264.121 102.631C266.835 104.617 269.946 106.106 273.454 107.099C277.028 108.092 280.801 108.589 284.773 108.589C288.016 108.589 291.26 108.191 294.503 107.397C297.813 106.669 300.792 105.478 303.439 103.823C306.087 102.102 308.238 99.9174 309.893 97.2696C311.614 94.5557 312.475 91.3123 312.475 87.5393C312.475 84.0311 311.813 81.1186 310.489 78.8018C309.231 76.4851 307.51 74.5655 305.326 73.0431C303.208 71.5206 300.792 70.3292 298.078 69.4686C295.364 68.5419 292.584 67.7476 289.737 67.0857C286.957 66.4238 284.21 65.828 281.496 65.2985C278.782 64.7028 276.333 63.9746 274.149 63.1141C272.031 62.2536 270.31 61.1614 268.986 59.8376C267.728 58.4475 267.099 56.6603 267.099 54.476C267.099 52.1592 267.53 50.2396 268.39 48.7172C269.317 47.1286 270.508 45.8709 271.965 44.9442C273.487 44.0175 275.208 43.3556 277.128 42.9584C279.047 42.5612 281 42.3627 282.986 42.3627C287.884 42.3627 291.889 43.521 295 45.8378C298.177 48.0883 300.03 51.7621 300.56 56.8589ZM324.333 36.1074V107H333.766V36.1074H324.333ZM355.092 71.5537C355.092 67.9793 355.556 64.4711 356.482 61.0291C357.409 57.5208 358.865 54.3767 360.851 51.5966C362.837 48.8165 365.385 46.599 368.496 44.9442C371.607 43.2232 375.314 42.3627 379.617 42.3627C383.919 42.3627 387.626 43.2232 390.737 44.9442C393.848 46.599 396.397 48.8165 398.382 51.5966C400.368 54.3767 401.824 57.5208 402.751 61.0291C403.678 64.4711 404.141 67.9793 404.141 71.5537C404.141 75.1281 403.678 78.6695 402.751 82.1777C401.824 85.6197 400.368 88.7308 398.382 91.5109C396.397 94.291 393.848 96.5415 390.737 98.2625C387.626 99.9174 383.919 100.745 379.617 100.745C375.314 100.745 371.607 99.9174 368.496 98.2625C365.385 96.5415 362.837 94.291 360.851 91.5109C358.865 88.7308 357.409 85.6197 356.482 82.1777C355.556 78.6695 355.092 75.1281 355.092 71.5537ZM345.66 71.5537C345.66 76.3858 346.355 81.0524 347.745 85.5535C349.201 89.9884 351.352 93.9269 354.199 97.3689C357.045 100.811 360.586 103.558 364.823 105.61C369.059 107.596 373.99 108.589 379.617 108.589C385.243 108.589 390.174 107.596 394.411 105.61C398.647 103.558 402.188 100.811 405.035 97.3689C407.881 93.9269 409.999 89.9884 411.389 85.5535C412.846 81.0524 413.574 76.3858 413.574 71.5537C413.574 66.7216 412.846 62.0881 411.389 57.6532C409.999 53.1521 407.881 49.1805 405.035 45.7385C402.188 42.2965 398.647 39.5495 394.411 37.4975C390.174 35.4455 385.243 34.4195 379.617 34.4195C373.99 34.4195 369.059 35.4455 364.823 37.4975C360.586 39.5495 357.045 42.2965 354.199 45.7385C351.352 49.1805 349.201 53.1521 347.745 57.6532C346.355 62.0881 345.66 66.7216 345.66 71.5537ZM424.969 36.1074V107H433.905V50.1072H434.103L471.138 107H481.464V36.1074H472.528V93.5959H472.33L434.997 36.1074H424.969Z" fill="black"/>
<path d="M83.5562 100.288C80.7289 100.288 77.9139 100.626 75.1856 101.294L70.3856 101.918C68.8663 101.782 67.6696 100.49 67.6696 98.9229C67.6696 97.2637 69.0052 95.9149 70.6491 95.9149C71.1137 95.9149 71.565 95.8496 71.9969 95.7393C75.5767 96.9717 79.4138 97.6425 83.401 97.6425C102.924 97.6425 118.805 81.6171 118.805 61.9199C118.805 42.2227 102.924 26.1982 83.401 26.1982C63.8815 26.1982 48 42.2227 48 61.9199C48 72.8411 52.8847 82.631 60.5621 89.1892C58.1626 91.7225 56.682 95.1501 56.682 98.9229C56.682 106.693 62.9472 113.014 70.6491 113.014L76.9 112.249L77.5453 112.124C79.4986 111.627 81.5203 111.373 83.5562 111.373C97.0179 111.373 107.97 122.426 107.97 136.011C107.97 149.595 97.0179 160.646 83.5562 160.646C70.0936 160.646 59.1407 149.595 59.1407 136.011C59.1407 133.201 59.6043 130.448 60.5182 127.827C61.5249 124.939 60.0209 121.775 57.1579 120.759C54.2969 119.745 51.1602 121.262 50.1534 124.149C48.8271 127.954 48.1542 131.944 48.1542 136.011C48.1542 155.708 64.0367 171.732 83.5562 171.732C103.076 171.732 118.957 155.708 118.957 136.011C118.957 116.314 103.076 100.288 83.5562 100.288ZM83.401 37.2838C96.8637 37.2838 107.818 48.3357 107.818 61.9199C107.818 75.504 96.8637 86.5569 83.401 86.5569C69.9394 86.5569 58.9876 75.504 58.9876 61.9199C58.9876 48.3357 69.9394 37.2838 83.401 37.2838" fill="black"/>
<path d="M115.915 18.5986C115.915 22.7961 112.543 26.1983 108.384 26.1983C104.225 26.1983 100.853 22.7961 100.853 18.5986C100.853 14.401 104.225 10.9999 108.384 10.9999C112.543 10.9999 115.915 14.401 115.915 18.5986Z" fill="#CC2026"/>
</svg>
