<?xml version="1.0" standalone="no"?>
<!DOCTYPE svg PUBLIC "-//W3C//DTD SVG 20010904//EN"
 "http://www.w3.org/TR/2001/REC-SVG-20010904/DTD/svg10.dtd">
<svg version="1.0" xmlns="http://www.w3.org/2000/svg"
 width="28.000000pt" height="54.000000pt" viewBox="0 0 28.000000 54.000000"
 preserveAspectRatio="xMidYMid meet">
<metadata>
Created by potrace 1.15, written by Peter Selinger 2001-2017
</metadata>
<g transform="translate(0.000000,54.000000) scale(0.100000,-0.100000)"
fill="#000000" stroke="none">
<path d="M177 534 c-3 -4 -2 -14 2 -23 8 -14 2 -16 -50 -13 -56 4 -61 2 -94
-31 -31 -31 -35 -41 -35 -89 0 -32 6 -62 14 -74 8 -10 12 -29 10 -41 -3 -11
-1 -31 6 -42 9 -17 20 -21 61 -21 43 0 55 -5 80 -29 34 -35 36 -49 8 -85 -15
-19 -30 -26 -53 -26 -42 0 -68 28 -75 83 -5 33 -10 42 -26 42 -17 0 -20 -8
-23 -52 -2 -29 2 -62 8 -73 17 -33 71 -60 116 -60 122 0 175 150 80 227 l-34
26 32 22 c59 40 68 143 16 190 -20 18 -20 18 2 29 13 6 24 19 26 29 3 13 -4
17 -31 17 -18 0 -37 -3 -40 -6z m-23 -95 c13 -7 30 -24 37 -40 9 -24 9 -33 -5
-54 -33 -50 -83 -51 -120 -2 -16 22 -17 30 -7 55 11 26 40 49 63 51 4 1 18 -4
32 -10z"/>
</g>
</svg>
