<?xml version="1.0" standalone="no"?>
<!DOCTYPE svg PUBLIC "-//W3C//DTD SVG 20010904//EN"
 "http://www.w3.org/TR/2001/REC-SVG-20010904/DTD/svg10.dtd">
<svg version="1.0" xmlns="http://www.w3.org/2000/svg"
 width="521.000000pt" height="142.000000pt" viewBox="0 0 521.000000 142.000000"
 preserveAspectRatio="xMidYMid meet">
<metadata>
Created by potrace 1.15, written by Peter Selinger 2001-2017
</metadata>
<g transform="translate(0.000000,142.000000) scale(0.100000,-0.100000)"
fill="#000000" stroke="none">
<path d="M4542 1408 c-9 -9 -12 -107 -12 -379 0 -321 2 -370 16 -383 20 -20
38 -20 58 0 14 13 16 62 16 383 0 386 -1 391 -45 391 -12 0 -26 -5 -33 -12z"/>
<path d="M475 1375 c-28 -27 -30 -42 -14 -79 16 -34 58 -51 91 -35 26 11 48
46 48 75 0 24 -47 64 -75 64 -14 0 -37 -11 -50 -25z"/>
<path d="M223 1256 c-60 -20 -107 -51 -152 -102 -49 -55 -71 -118 -71 -199 0
-78 22 -142 66 -193 34 -40 35 -42 19 -71 -20 -40 -19 -79 5 -118 32 -53 69
-66 169 -58 70 5 95 4 126 -10 154 -64 171 -273 30 -360 -83 -52 -181 -38
-253 36 -44 45 -56 88 -48 174 6 63 4 73 -13 89 -30 27 -69 14 -87 -29 -16
-40 -18 -134 -4 -187 16 -55 69 -128 121 -165 160 -114 383 -53 464 128 24 55
27 70 23 143 -7 125 -64 213 -174 267 -43 21 -61 24 -156 23 -83 -1 -108 1
-108 11 0 19 20 23 60 12 96 -26 224 16 299 99 64 70 85 131 79 228 -8 120
-77 220 -184 267 -57 26 -157 33 -211 15z m174 -120 c71 -33 106 -87 111 -170
3 -50 -1 -69 -20 -106 -78 -146 -284 -145 -358 1 -41 80 -15 202 54 253 68 51
136 58 213 22z"/>
<path d="M919 1227 c-100 -38 -158 -103 -185 -209 -38 -145 24 -294 150 -361
33 -17 58 -22 126 -22 76 0 91 3 139 30 55 30 111 94 111 125 0 50 -58 53 -94
5 -96 -125 -294 -89 -344 63 l-11 32 223 0 c260 0 252 -3 243 89 -9 105 -63
188 -151 233 -51 26 -157 34 -207 15z m196 -111 c34 -26 74 -93 75 -123 0 -10
-45 -13 -191 -13 l-190 0 7 23 c18 60 65 116 114 136 14 6 53 10 86 8 50 -2
69 -8 99 -31z"/>
<path d="M1386 1224 c-14 -13 -16 -54 -16 -293 0 -291 1 -301 45 -301 42 0 45
15 45 207 0 163 2 188 20 223 42 82 150 116 219 68 74 -50 76 -57 79 -276 2
-119 7 -201 14 -209 14 -17 53 -16 68 2 19 23 9 399 -13 446 -44 97 -115 143
-222 143 -58 0 -79 -4 -118 -26 -33 -19 -47 -23 -47 -13 0 18 -27 45 -45 45
-7 0 -21 -7 -29 -16z"/>
<path d="M1967 1234 c-4 -4 -7 -137 -7 -294 0 -246 2 -289 15 -300 12 -10 21
-10 40 -2 l25 12 -2 292 -3 293 -30 3 c-17 2 -34 0 -38 -4z"/>
<path d="M2339 1227 c-100 -38 -158 -103 -185 -209 -38 -145 25 -296 149 -360
50 -25 147 -34 204 -19 92 25 193 126 167 168 -20 33 -58 28 -88 -12 -96 -125
-293 -89 -344 63 l-11 32 223 0 c260 0 252 -3 243 89 -9 105 -63 188 -151 233
-51 26 -157 34 -207 15z m196 -111 c34 -26 74 -93 75 -123 0 -10 -45 -13 -191
-13 l-190 0 7 23 c18 60 65 116 114 136 14 6 53 10 86 8 50 -2 69 -8 99 -31z"/>
<path d="M2980 1223 c-27 -10 -67 -38 -101 -72 -71 -72 -94 -132 -87 -235 8
-116 65 -204 166 -253 76 -37 182 -39 257 -5 112 51 178 154 179 277 1 85 -14
131 -63 193 -57 71 -127 105 -226 109 -56 2 -94 -2 -125 -14z m208 -92 c107
-55 150 -174 101 -281 -27 -60 -45 -79 -104 -106 -188 -89 -379 107 -284 292
56 108 181 149 287 95z"/>
<path d="M3480 1225 c-19 -23 -9 -399 13 -446 44 -97 115 -143 222 -143 58 0
79 4 118 26 33 19 47 23 47 13 0 -18 27 -45 45 -45 7 0 21 7 29 16 14 13 16
54 16 293 0 291 -1 301 -45 301 -42 0 -45 -15 -45 -207 0 -163 -2 -188 -20
-223 -42 -82 -150 -116 -219 -68 -74 50 -76 57 -79 276 -2 119 -7 201 -14 209
-14 17 -53 16 -68 -2z"/>
<path d="M4150 1218 c-24 -13 -53 -35 -63 -50 -25 -33 -34 -118 -17 -158 19
-46 53 -67 160 -100 104 -32 130 -51 130 -94 0 -58 -47 -96 -117 -96 -45 1
-74 15 -103 53 -23 29 -48 35 -68 15 -19 -19 -14 -54 14 -88 34 -40 69 -57
130 -65 145 -20 263 100 225 226 -18 61 -60 95 -145 120 -106 31 -126 40 -142
64 -17 26 -8 60 22 86 48 42 113 34 161 -19 29 -32 35 -34 58 -24 53 24 11
112 -68 141 -48 19 -128 13 -177 -11z"/>
<path d="M4712 1228 c-19 -19 -16 -350 4 -417 18 -61 70 -123 128 -154 62 -32
166 -30 229 5 l47 27 0 -67 c0 -80 -19 -123 -72 -165 -76 -61 -192 -43 -254
38 -28 37 -63 46 -83 21 -29 -35 35 -122 118 -160 60 -27 170 -28 221 -2 63
33 95 63 125 117 l30 54 3 343 c3 363 2 372 -42 372 -43 0 -46 -15 -46 -205 0
-204 -10 -242 -71 -286 -48 -34 -140 -34 -188 0 -61 44 -71 82 -71 287 0 189
-3 204 -45 204 -12 0 -26 -5 -33 -12z"/>
</g>
</svg>
