<?xml version="1.0" standalone="no"?>
<!DOCTYPE svg PUBLIC "-//W3C//DTD SVG 20010904//EN"
 "http://www.w3.org/TR/2001/REC-SVG-20010904/DTD/svg10.dtd">
<svg version="1.0" xmlns="http://www.w3.org/2000/svg"
 width="87.000000pt" height="172.000000pt" viewBox="0 0 87.000000 172.000000"
 preserveAspectRatio="xMidYMid meet">
<metadata>
Created by potrace 1.15, written by Peter Selinger 2001-2017
</metadata>
<g transform="translate(0.000000,172.000000) scale(0.100000,-0.100000)"
fill="#000000" stroke="none">
<path d="M570 1705 c-19 -23 -5 -86 25 -112 74 -64 184 19 149 111 -9 23 -156
23 -174 1z"/>
<path d="M261 1574 c-66 -24 -111 -55 -168 -118 -76 -83 -96 -143 -91 -276 4
-113 18 -154 81 -233 l29 -38 -16 -54 c-22 -68 -10 -121 39 -169 41 -41 73
-47 220 -44 93 3 103 1 147 -24 92 -55 135 -137 126 -242 -9 -105 -101 -203
-208 -221 -58 -10 -138 17 -192 65 -69 60 -82 95 -80 221 2 93 0 108 -17 123
-28 26 -79 17 -105 -17 -19 -25 -21 -42 -21 -145 0 -103 3 -123 24 -165 37
-75 113 -152 189 -189 62 -31 73 -33 172 -33 93 0 112 3 162 27 168 78 255
254 218 440 -24 125 -93 218 -201 274 -50 26 -65 29 -184 32 -143 3 -170 8
-144 22 10 6 30 6 50 0 120 -35 288 19 385 122 178 191 114 517 -124 626 -72
33 -222 41 -291 16z m186 -139 c112 -33 173 -109 180 -225 5 -75 -10 -119 -59
-176 -127 -144 -360 -91 -414 94 -38 128 33 261 163 308 49 17 69 17 130 -1z"/>
</g>
</svg>
